<svg xmlns="http://www.w3.org/2000/svg" xmlns:xlink="http://www.w3.org/1999/xlink" width="170" zoomAndPan="magnify" viewBox="0 0 127.5 30.000001" height="40" preserveAspectRatio="xMidYMid meet" version="1.0"><defs><g/></defs><g fill="#2b2a2a" fill-opacity="1"><g transform="translate(9.032694, 20.850168)"><g><path d="M 0.15625 -12.640625 L 0.15625 -15.796875 L 11.25 -15.796875 L 11.25 -12.640625 L 7.5 -12.640625 L 7.5 0 L 3.90625 0 L 3.90625 -12.640625 Z M 0.15625 -12.640625 "/></g></g></g><g fill="#2b2a2a" fill-opacity="1"><g transform="translate(19.480032, 20.850168)"><g><path d="M 1.15625 0 L 1.15625 -9.8125 L 4.53125 -9.8125 L 4.53125 -8.40625 L 4.578125 -8.40625 C 4.597656 -8.457031 4.632812 -8.519531 4.6875 -8.59375 C 4.75 -8.664062 4.875 -8.796875 5.0625 -8.984375 C 5.257812 -9.179688 5.46875 -9.359375 5.6875 -9.515625 C 5.90625 -9.671875 6.1875 -9.804688 6.53125 -9.921875 C 6.875 -10.046875 7.222656 -10.109375 7.578125 -10.109375 C 7.953125 -10.109375 8.316406 -10.054688 8.671875 -9.953125 C 9.023438 -9.847656 9.285156 -9.742188 9.453125 -9.640625 L 9.71875 -9.5 L 8.3125 -6.625 C 7.882812 -6.976562 7.296875 -7.15625 6.546875 -7.15625 C 6.140625 -7.15625 5.785156 -7.066406 5.484375 -6.890625 C 5.191406 -6.710938 4.984375 -6.492188 4.859375 -6.234375 C 4.742188 -5.984375 4.660156 -5.769531 4.609375 -5.59375 C 4.554688 -5.414062 4.53125 -5.273438 4.53125 -5.171875 L 4.53125 0 Z M 1.15625 0 "/></g></g></g><g fill="#2b2a2a" fill-opacity="1"><g transform="translate(28.052206, 20.850168)"><g><path d="M 1.8125 -1.21875 C 0.894531 -2.21875 0.4375 -3.441406 0.4375 -4.890625 C 0.4375 -6.347656 0.894531 -7.582031 1.8125 -8.59375 C 2.738281 -9.601562 3.910156 -10.109375 5.328125 -10.109375 C 6.628906 -10.109375 7.695312 -9.695312 8.53125 -8.875 L 8.53125 -9.8125 L 11.921875 -9.8125 L 11.921875 0 L 8.578125 0 L 8.578125 -1.109375 L 8.53125 -1.109375 C 7.695312 -0.179688 6.628906 0.28125 5.328125 0.28125 C 3.910156 0.28125 2.738281 -0.21875 1.8125 -1.21875 Z M 4.6875 -6.5625 C 4.25 -6.132812 4.03125 -5.582031 4.03125 -4.90625 C 4.03125 -4.226562 4.238281 -3.675781 4.65625 -3.25 C 5.082031 -2.820312 5.640625 -2.609375 6.328125 -2.609375 C 6.992188 -2.609375 7.539062 -2.820312 7.96875 -3.25 C 8.394531 -3.6875 8.609375 -4.238281 8.609375 -4.90625 C 8.609375 -5.582031 8.390625 -6.132812 7.953125 -6.5625 C 7.515625 -7 6.972656 -7.21875 6.328125 -7.21875 C 5.679688 -7.21875 5.132812 -7 4.6875 -6.5625 Z M 4.6875 -6.5625 "/></g></g></g><g fill="#2b2a2a" fill-opacity="1"><g transform="translate(40.164229, 20.850168)"><g><path d="M 1.8125 -1.21875 C 0.894531 -2.21875 0.4375 -3.441406 0.4375 -4.890625 C 0.4375 -6.347656 0.894531 -7.582031 1.8125 -8.59375 C 2.738281 -9.601562 3.910156 -10.109375 5.328125 -10.109375 C 6.628906 -10.109375 7.695312 -9.695312 8.53125 -8.875 L 8.53125 -16.46875 L 11.921875 -16.46875 L 11.921875 0 L 8.578125 0 L 8.578125 -1.109375 L 8.53125 -1.109375 C 7.695312 -0.179688 6.628906 0.28125 5.328125 0.28125 C 3.910156 0.28125 2.738281 -0.21875 1.8125 -1.21875 Z M 4.6875 -6.5625 C 4.25 -6.132812 4.03125 -5.582031 4.03125 -4.90625 C 4.03125 -4.226562 4.238281 -3.675781 4.65625 -3.25 C 5.082031 -2.820312 5.640625 -2.609375 6.328125 -2.609375 C 6.992188 -2.609375 7.539062 -2.820312 7.96875 -3.25 C 8.394531 -3.6875 8.609375 -4.238281 8.609375 -4.90625 C 8.609375 -5.582031 8.390625 -6.132812 7.953125 -6.5625 C 7.515625 -7 6.972656 -7.21875 6.328125 -7.21875 C 5.679688 -7.21875 5.132812 -7 4.6875 -6.5625 Z M 4.6875 -6.5625 "/></g></g></g><g fill="#2b2a2a" fill-opacity="1"><g transform="translate(52.276255, 20.850168)"><g><path d="M 1.46875 -15.296875 C 1.863281 -15.691406 2.335938 -15.890625 2.890625 -15.890625 C 3.441406 -15.890625 3.914062 -15.691406 4.3125 -15.296875 C 4.707031 -14.898438 4.90625 -14.425781 4.90625 -13.875 C 4.90625 -13.320312 4.707031 -12.847656 4.3125 -12.453125 C 3.914062 -12.066406 3.441406 -11.875 2.890625 -11.875 C 2.335938 -11.875 1.863281 -12.066406 1.46875 -12.453125 C 1.070312 -12.847656 0.875 -13.320312 0.875 -13.875 C 0.875 -14.425781 1.070312 -14.898438 1.46875 -15.296875 Z M 1.15625 -9.8125 L 1.15625 0 L 4.53125 0 L 4.53125 -9.8125 Z M 1.15625 -9.8125 "/></g></g></g><g fill="#2b2a2a" fill-opacity="1"><g transform="translate(57.098103, 20.850168)"><g><path d="M 1.15625 0 L 1.15625 -9.8125 L 4.53125 -9.8125 L 4.53125 -8.78125 L 4.578125 -8.78125 C 5.453125 -9.664062 6.390625 -10.109375 7.390625 -10.109375 C 7.867188 -10.109375 8.347656 -10.039062 8.828125 -9.90625 C 9.304688 -9.78125 9.765625 -9.582031 10.203125 -9.3125 C 10.648438 -9.050781 11.007812 -8.675781 11.28125 -8.1875 C 11.550781 -7.695312 11.6875 -7.125 11.6875 -6.46875 L 11.6875 0 L 8.3125 0 L 8.3125 -5.546875 C 8.3125 -6.054688 8.144531 -6.503906 7.8125 -6.890625 C 7.488281 -7.273438 7.066406 -7.46875 6.546875 -7.46875 C 6.035156 -7.46875 5.570312 -7.269531 5.15625 -6.875 C 4.738281 -6.476562 4.53125 -6.035156 4.53125 -5.546875 L 4.53125 0 Z M 1.15625 0 "/></g></g></g><g fill="#2b2a2a" fill-opacity="1"><g transform="translate(68.789171, 20.850168)"><g><path d="M 0.703125 2.40625 L 3.484375 1.046875 C 3.992188 1.890625 4.878906 2.3125 6.140625 2.3125 C 6.734375 2.3125 7.28125 2.125 7.78125 1.75 C 8.28125 1.375 8.53125 0.796875 8.53125 0.015625 L 8.53125 -0.703125 C 7.9375 -0.046875 6.867188 0.28125 5.328125 0.28125 C 3.910156 0.28125 2.738281 -0.21875 1.8125 -1.21875 C 0.894531 -2.21875 0.4375 -3.441406 0.4375 -4.890625 C 0.4375 -6.347656 0.894531 -7.582031 1.8125 -8.59375 C 2.738281 -9.601562 3.910156 -10.109375 5.328125 -10.109375 C 6.585938 -10.109375 7.640625 -9.71875 8.484375 -8.9375 L 8.53125 -8.9375 L 8.53125 -9.8125 L 11.921875 -9.8125 L 11.921875 0.265625 C 11.921875 1.859375 11.390625 3.085938 10.328125 3.953125 C 9.273438 4.828125 7.878906 5.265625 6.140625 5.265625 C 3.335938 5.265625 1.523438 4.3125 0.703125 2.40625 Z M 4.6875 -6.5625 C 4.25 -6.132812 4.03125 -5.582031 4.03125 -4.90625 C 4.03125 -4.226562 4.238281 -3.675781 4.65625 -3.25 C 5.082031 -2.820312 5.640625 -2.609375 6.328125 -2.609375 C 6.992188 -2.609375 7.539062 -2.820312 7.96875 -3.25 C 8.394531 -3.6875 8.609375 -4.238281 8.609375 -4.90625 C 8.609375 -5.582031 8.390625 -6.132812 7.953125 -6.5625 C 7.515625 -7 6.972656 -7.21875 6.328125 -7.21875 C 5.679688 -7.21875 5.132812 -7 4.6875 -6.5625 Z M 4.6875 -6.5625 "/></g></g></g><g fill="#2b2a2a" fill-opacity="1"><g transform="translate(80.901197, 20.850168)"><g><path d="M 0.15625 -12.640625 L 0.15625 -15.796875 L 11.25 -15.796875 L 11.25 -12.640625 L 7.5 -12.640625 L 7.5 0 L 3.90625 0 L 3.90625 -12.640625 Z M 0.15625 -12.640625 "/></g></g></g><g fill="#2b2a2a" fill-opacity="1"><g transform="translate(91.348535, 20.850168)"><g><path d="M 1.46875 -15.296875 C 1.863281 -15.691406 2.335938 -15.890625 2.890625 -15.890625 C 3.441406 -15.890625 3.914062 -15.691406 4.3125 -15.296875 C 4.707031 -14.898438 4.90625 -14.425781 4.90625 -13.875 C 4.90625 -13.320312 4.707031 -12.847656 4.3125 -12.453125 C 3.914062 -12.066406 3.441406 -11.875 2.890625 -11.875 C 2.335938 -11.875 1.863281 -12.066406 1.46875 -12.453125 C 1.070312 -12.847656 0.875 -13.320312 0.875 -13.875 C 0.875 -14.425781 1.070312 -14.898438 1.46875 -15.296875 Z M 1.15625 -9.8125 L 1.15625 0 L 4.53125 0 L 4.53125 -9.8125 Z M 1.15625 -9.8125 "/></g></g></g><g fill="#2b2a2a" fill-opacity="1"><g transform="translate(96.170383, 20.850168)"><g><path d="M 6.375 -7.328125 C 5.738281 -7.328125 5.1875 -7.09375 4.71875 -6.625 C 4.257812 -6.15625 4.03125 -5.585938 4.03125 -4.921875 C 4.03125 -4.242188 4.257812 -3.664062 4.71875 -3.1875 C 5.1875 -2.71875 5.738281 -2.484375 6.375 -2.484375 C 6.675781 -2.484375 6.960938 -2.519531 7.234375 -2.59375 C 7.515625 -2.675781 7.71875 -2.753906 7.84375 -2.828125 L 8.015625 -2.953125 L 9.171875 -0.59375 C 9.078125 -0.53125 8.953125 -0.445312 8.796875 -0.34375 C 8.640625 -0.25 8.273438 -0.125 7.703125 0.03125 C 7.140625 0.195312 6.53125 0.28125 5.875 0.28125 C 4.4375 0.28125 3.171875 -0.222656 2.078125 -1.234375 C 0.984375 -2.242188 0.4375 -3.457031 0.4375 -4.875 C 0.4375 -6.3125 0.984375 -7.539062 2.078125 -8.5625 C 3.171875 -9.59375 4.4375 -10.109375 5.875 -10.109375 C 6.53125 -10.109375 7.128906 -10.03125 7.671875 -9.875 C 8.222656 -9.71875 8.613281 -9.566406 8.84375 -9.421875 L 9.171875 -9.1875 L 8.015625 -6.875 C 7.597656 -7.175781 7.050781 -7.328125 6.375 -7.328125 Z M 6.375 -7.328125 "/></g></g></g><g fill="#2b2a2a" fill-opacity="1"><g transform="translate(104.608617, 20.850168)"><g><path d="M 12.359375 -9.8125 L 7.6875 -5.125 L 12.828125 0 L 8.453125 0 L 4.53125 -3.921875 L 4.53125 0 L 1.15625 0 L 1.15625 -16.46875 L 4.53125 -16.46875 L 4.53125 -6.390625 L 7.96875 -9.8125 Z M 12.359375 -9.8125 "/></g></g></g></svg>